<mxfile host="app.diagrams.net" modified="2023-04-25T14:17:59.563Z" agent="Mozilla/5.0 (Windows NT 10.0; Win64; x64) AppleWebKit/537.36 (KHTML, like Gecko) Chrome/112.0.0.0 Safari/537.36" etag="a8Znj8DxL7-YxxTFlXg6" version="21.2.1" type="device">
  <diagram name="Página-1" id="oj82x-xANLa_vGSxV3AF">
    <mxGraphModel dx="1434" dy="739" grid="1" gridSize="10" guides="1" tooltips="1" connect="1" arrows="1" fold="1" page="1" pageScale="1" pageWidth="827" pageHeight="1169" math="0" shadow="0">
      <root>
        <mxCell id="0" />
        <mxCell id="1" parent="0" />
        <mxCell id="ZFifgATXgoWZsA9ZOCMj-1" value="Aluguél de Veículos" style="text;html=1;strokeColor=none;fillColor=none;align=center;verticalAlign=middle;whiteSpace=wrap;rounded=0;" parent="1" vertex="1">
          <mxGeometry x="354" y="30" width="120" height="20" as="geometry" />
        </mxCell>
        <mxCell id="ZFifgATXgoWZsA9ZOCMj-13" style="edgeStyle=orthogonalEdgeStyle;rounded=0;orthogonalLoop=1;jettySize=auto;html=1;exitX=0;exitY=0;exitDx=70;exitDy=32;exitPerimeter=0;entryX=0.5;entryY=0;entryDx=0;entryDy=0;endArrow=none;endFill=0;" parent="1" source="ZFifgATXgoWZsA9ZOCMj-2" target="ZFifgATXgoWZsA9ZOCMj-7" edge="1">
          <mxGeometry relative="1" as="geometry" />
        </mxCell>
        <mxCell id="ZFifgATXgoWZsA9ZOCMj-14" style="edgeStyle=orthogonalEdgeStyle;rounded=0;orthogonalLoop=1;jettySize=auto;html=1;exitX=0.5;exitY=1;exitDx=0;exitDy=0;exitPerimeter=0;endArrow=none;endFill=0;" parent="1" source="ZFifgATXgoWZsA9ZOCMj-2" target="ZFifgATXgoWZsA9ZOCMj-4" edge="1">
          <mxGeometry relative="1" as="geometry" />
        </mxCell>
        <mxCell id="ZFifgATXgoWZsA9ZOCMj-2" value="models" style="shape=folder;fontStyle=1;spacingTop=10;tabWidth=40;tabHeight=14;tabPosition=left;html=1;whiteSpace=wrap;" parent="1" vertex="1">
          <mxGeometry x="178" y="50" width="70" height="50" as="geometry" />
        </mxCell>
        <mxCell id="ZFifgATXgoWZsA9ZOCMj-3" value="Veiculo" style="swimlane;fontStyle=1;align=center;verticalAlign=top;childLayout=stackLayout;horizontal=1;startSize=26;horizontalStack=0;resizeParent=1;resizeParentMax=0;resizeLast=0;collapsible=1;marginBottom=0;whiteSpace=wrap;html=1;" parent="1" vertex="1">
          <mxGeometry x="258" y="120" width="160" height="190" as="geometry" />
        </mxCell>
        <mxCell id="ZFifgATXgoWZsA9ZOCMj-4" value="+ placa: String&lt;br&gt;+ modelo: String&lt;br&gt;+ marca: String&lt;br&gt;+ ano: int&lt;br&gt;+ idade: int&lt;br&gt;+ diaria: float&lt;br&gt;+ alugueis: List&amp;lt;Aluguel&amp;gt;" style="text;strokeColor=none;fillColor=none;align=left;verticalAlign=top;spacingLeft=4;spacingRight=4;overflow=hidden;rotatable=0;points=[[0,0.5],[1,0.5]];portConstraint=eastwest;whiteSpace=wrap;html=1;" parent="ZFifgATXgoWZsA9ZOCMj-3" vertex="1">
          <mxGeometry y="26" width="160" height="114" as="geometry" />
        </mxCell>
        <mxCell id="ZFifgATXgoWZsA9ZOCMj-5" value="" style="line;strokeWidth=1;fillColor=none;align=left;verticalAlign=middle;spacingTop=-1;spacingLeft=3;spacingRight=3;rotatable=0;labelPosition=right;points=[];portConstraint=eastwest;strokeColor=inherit;" parent="ZFifgATXgoWZsA9ZOCMj-3" vertex="1">
          <mxGeometry y="140" width="160" height="8" as="geometry" />
        </mxCell>
        <mxCell id="ZFifgATXgoWZsA9ZOCMj-6" value="+ Construtor(): void&lt;br&gt;+ getIdade(): int" style="text;strokeColor=none;fillColor=none;align=left;verticalAlign=top;spacingLeft=4;spacingRight=4;overflow=hidden;rotatable=0;points=[[0,0.5],[1,0.5]];portConstraint=eastwest;whiteSpace=wrap;html=1;" parent="ZFifgATXgoWZsA9ZOCMj-3" vertex="1">
          <mxGeometry y="148" width="160" height="42" as="geometry" />
        </mxCell>
        <mxCell id="ZFifgATXgoWZsA9ZOCMj-7" value="Aluguel" style="swimlane;fontStyle=1;align=center;verticalAlign=top;childLayout=stackLayout;horizontal=1;startSize=26;horizontalStack=0;resizeParent=1;resizeParentMax=0;resizeLast=0;collapsible=1;marginBottom=0;whiteSpace=wrap;html=1;" parent="1" vertex="1">
          <mxGeometry x="490" y="135" width="160" height="170" as="geometry" />
        </mxCell>
        <mxCell id="ZFifgATXgoWZsA9ZOCMj-8" value="+ id: int&lt;br&gt;+ veiculo: Veiculo&lt;br&gt;+ dataRetirada: Date&lt;br&gt;+ dataDevolucao: Date&lt;br&gt;+ valorAluguel: float" style="text;strokeColor=none;fillColor=none;align=left;verticalAlign=top;spacingLeft=4;spacingRight=4;overflow=hidden;rotatable=0;points=[[0,0.5],[1,0.5]];portConstraint=eastwest;whiteSpace=wrap;html=1;" parent="ZFifgATXgoWZsA9ZOCMj-7" vertex="1">
          <mxGeometry y="26" width="160" height="84" as="geometry" />
        </mxCell>
        <mxCell id="ZFifgATXgoWZsA9ZOCMj-9" value="" style="line;strokeWidth=1;fillColor=none;align=left;verticalAlign=middle;spacingTop=-1;spacingLeft=3;spacingRight=3;rotatable=0;labelPosition=right;points=[];portConstraint=eastwest;strokeColor=inherit;" parent="ZFifgATXgoWZsA9ZOCMj-7" vertex="1">
          <mxGeometry y="110" width="160" height="8" as="geometry" />
        </mxCell>
        <mxCell id="ZFifgATXgoWZsA9ZOCMj-10" value="+ Construtor(): void&lt;br&gt;+ getDias(): int&lt;br&gt;+ getValor(): float" style="text;strokeColor=none;fillColor=none;align=left;verticalAlign=top;spacingLeft=4;spacingRight=4;overflow=hidden;rotatable=0;points=[[0,0.5],[1,0.5]];portConstraint=eastwest;whiteSpace=wrap;html=1;" parent="ZFifgATXgoWZsA9ZOCMj-7" vertex="1">
          <mxGeometry y="118" width="160" height="52" as="geometry" />
        </mxCell>
        <mxCell id="ZFifgATXgoWZsA9ZOCMj-11" value="" style="endArrow=diamondThin;endFill=1;endSize=24;html=1;rounded=0;exitX=0;exitY=0.5;exitDx=0;exitDy=0;entryX=1;entryY=0.5;entryDx=0;entryDy=0;" parent="1" source="ZFifgATXgoWZsA9ZOCMj-8" target="ZFifgATXgoWZsA9ZOCMj-4" edge="1">
          <mxGeometry width="160" relative="1" as="geometry">
            <mxPoint x="388" y="240" as="sourcePoint" />
            <mxPoint x="468" y="260" as="targetPoint" />
          </mxGeometry>
        </mxCell>
        <mxCell id="ZFifgATXgoWZsA9ZOCMj-15" value="Crediário" style="text;html=1;strokeColor=none;fillColor=none;align=center;verticalAlign=middle;whiteSpace=wrap;rounded=0;" parent="1" vertex="1">
          <mxGeometry x="354" y="330" width="120" height="20" as="geometry" />
        </mxCell>
        <mxCell id="ZFifgATXgoWZsA9ZOCMj-16" style="edgeStyle=orthogonalEdgeStyle;rounded=0;orthogonalLoop=1;jettySize=auto;html=1;exitX=0;exitY=0;exitDx=70;exitDy=32;exitPerimeter=0;entryX=0.5;entryY=0;entryDx=0;entryDy=0;endArrow=none;endFill=0;" parent="1" source="ZFifgATXgoWZsA9ZOCMj-18" target="ZFifgATXgoWZsA9ZOCMj-23" edge="1">
          <mxGeometry relative="1" as="geometry" />
        </mxCell>
        <mxCell id="ZFifgATXgoWZsA9ZOCMj-17" style="edgeStyle=orthogonalEdgeStyle;rounded=0;orthogonalLoop=1;jettySize=auto;html=1;exitX=0.5;exitY=1;exitDx=0;exitDy=0;exitPerimeter=0;endArrow=none;endFill=0;" parent="1" source="ZFifgATXgoWZsA9ZOCMj-18" target="ZFifgATXgoWZsA9ZOCMj-20" edge="1">
          <mxGeometry relative="1" as="geometry" />
        </mxCell>
        <mxCell id="ZFifgATXgoWZsA9ZOCMj-18" value="models" style="shape=folder;fontStyle=1;spacingTop=10;tabWidth=40;tabHeight=14;tabPosition=left;html=1;whiteSpace=wrap;" parent="1" vertex="1">
          <mxGeometry x="190" y="350" width="70" height="50" as="geometry" />
        </mxCell>
        <mxCell id="ZFifgATXgoWZsA9ZOCMj-19" value="Compra" style="swimlane;fontStyle=1;align=center;verticalAlign=top;childLayout=stackLayout;horizontal=1;startSize=26;horizontalStack=0;resizeParent=1;resizeParentMax=0;resizeLast=0;collapsible=1;marginBottom=0;whiteSpace=wrap;html=1;" parent="1" vertex="1">
          <mxGeometry x="270" y="415" width="160" height="210" as="geometry" />
        </mxCell>
        <mxCell id="ZFifgATXgoWZsA9ZOCMj-20" value="+ id: int&lt;br&gt;+ data: Date&lt;br&gt;+ produto: String&lt;br&gt;+ cliente: String&lt;br&gt;+ totalParcelas: int&lt;br&gt;+ preco: float&lt;br&gt;+ quantidade: int&lt;br&gt;+ total: float&lt;br&gt;+ parcelas: List&amp;lt;Parcela&amp;gt;" style="text;strokeColor=none;fillColor=none;align=left;verticalAlign=top;spacingLeft=4;spacingRight=4;overflow=hidden;rotatable=0;points=[[0,0.5],[1,0.5]];portConstraint=eastwest;whiteSpace=wrap;html=1;" parent="ZFifgATXgoWZsA9ZOCMj-19" vertex="1">
          <mxGeometry y="26" width="160" height="134" as="geometry" />
        </mxCell>
        <mxCell id="ZFifgATXgoWZsA9ZOCMj-21" value="" style="line;strokeWidth=1;fillColor=none;align=left;verticalAlign=middle;spacingTop=-1;spacingLeft=3;spacingRight=3;rotatable=0;labelPosition=right;points=[];portConstraint=eastwest;strokeColor=inherit;" parent="ZFifgATXgoWZsA9ZOCMj-19" vertex="1">
          <mxGeometry y="160" width="160" height="8" as="geometry" />
        </mxCell>
        <mxCell id="ZFifgATXgoWZsA9ZOCMj-22" value="+ Construtor(): void&lt;br&gt;+ getTotal(): float" style="text;strokeColor=none;fillColor=none;align=left;verticalAlign=top;spacingLeft=4;spacingRight=4;overflow=hidden;rotatable=0;points=[[0,0.5],[1,0.5]];portConstraint=eastwest;whiteSpace=wrap;html=1;" parent="ZFifgATXgoWZsA9ZOCMj-19" vertex="1">
          <mxGeometry y="168" width="160" height="42" as="geometry" />
        </mxCell>
        <mxCell id="ZFifgATXgoWZsA9ZOCMj-23" value="Parcela" style="swimlane;fontStyle=1;align=center;verticalAlign=top;childLayout=stackLayout;horizontal=1;startSize=26;horizontalStack=0;resizeParent=1;resizeParentMax=0;resizeLast=0;collapsible=1;marginBottom=0;whiteSpace=wrap;html=1;" parent="1" vertex="1">
          <mxGeometry x="502" y="423" width="160" height="200" as="geometry" />
        </mxCell>
        <mxCell id="ZFifgATXgoWZsA9ZOCMj-24" value="+ id: int&lt;br&gt;+ compra: Compra&lt;br&gt;+ dataVencimento: Date&lt;br&gt;+ dataPagamento: Date&lt;br&gt;+ valorParcela: float&lt;br&gt;+ juros: float" style="text;strokeColor=none;fillColor=none;align=left;verticalAlign=top;spacingLeft=4;spacingRight=4;overflow=hidden;rotatable=0;points=[[0,0.5],[1,0.5]];portConstraint=eastwest;whiteSpace=wrap;html=1;" parent="ZFifgATXgoWZsA9ZOCMj-23" vertex="1">
          <mxGeometry y="26" width="160" height="94" as="geometry" />
        </mxCell>
        <mxCell id="ZFifgATXgoWZsA9ZOCMj-25" value="" style="line;strokeWidth=1;fillColor=none;align=left;verticalAlign=middle;spacingTop=-1;spacingLeft=3;spacingRight=3;rotatable=0;labelPosition=right;points=[];portConstraint=eastwest;strokeColor=inherit;" parent="ZFifgATXgoWZsA9ZOCMj-23" vertex="1">
          <mxGeometry y="120" width="160" height="8" as="geometry" />
        </mxCell>
        <mxCell id="ZFifgATXgoWZsA9ZOCMj-26" value="+ Construtor(): void&lt;br&gt;+ getValorParcela(): float&lt;br&gt;+ getDiasAtraso(): int&lt;br&gt;+ getJuros(): float" style="text;strokeColor=none;fillColor=none;align=left;verticalAlign=top;spacingLeft=4;spacingRight=4;overflow=hidden;rotatable=0;points=[[0,0.5],[1,0.5]];portConstraint=eastwest;whiteSpace=wrap;html=1;" parent="ZFifgATXgoWZsA9ZOCMj-23" vertex="1">
          <mxGeometry y="128" width="160" height="72" as="geometry" />
        </mxCell>
        <mxCell id="ZFifgATXgoWZsA9ZOCMj-27" value="" style="endArrow=diamondThin;endFill=1;endSize=24;html=1;rounded=0;entryX=1;entryY=0.5;entryDx=0;entryDy=0;exitX=-0.012;exitY=0.628;exitDx=0;exitDy=0;exitPerimeter=0;" parent="1" source="ZFifgATXgoWZsA9ZOCMj-24" target="ZFifgATXgoWZsA9ZOCMj-20" edge="1">
          <mxGeometry width="160" relative="1" as="geometry">
            <mxPoint x="500" y="503" as="sourcePoint" />
            <mxPoint x="480" y="560" as="targetPoint" />
          </mxGeometry>
        </mxCell>
        <mxCell id="P-iKu-XRSSzgZiKe_lBE-1" value="1..*" style="endArrow=diamondThin;endFill=0;endSize=24;html=1;rounded=0;exitX=0.993;exitY=0.852;exitDx=0;exitDy=0;exitPerimeter=0;entryX=0;entryY=0.057;entryDx=0;entryDy=0;entryPerimeter=0;" edge="1" parent="1" source="ZFifgATXgoWZsA9ZOCMj-20" target="ZFifgATXgoWZsA9ZOCMj-26">
          <mxGeometry x="-0.8063" y="14" width="160" relative="1" as="geometry">
            <mxPoint x="330" y="410" as="sourcePoint" />
            <mxPoint x="490" y="410" as="targetPoint" />
            <mxPoint as="offset" />
          </mxGeometry>
        </mxCell>
        <mxCell id="P-iKu-XRSSzgZiKe_lBE-2" value="1..*" style="endArrow=diamondThin;endFill=0;endSize=24;html=1;rounded=0;entryX=0;entryY=0.993;entryDx=0;entryDy=0;entryPerimeter=0;exitX=1;exitY=0.86;exitDx=0;exitDy=0;exitPerimeter=0;" edge="1" parent="1" source="ZFifgATXgoWZsA9ZOCMj-4" target="ZFifgATXgoWZsA9ZOCMj-8">
          <mxGeometry x="-0.6687" y="14" width="160" relative="1" as="geometry">
            <mxPoint x="450" y="420" as="sourcePoint" />
            <mxPoint x="502" y="555" as="targetPoint" />
            <mxPoint as="offset" />
          </mxGeometry>
        </mxCell>
      </root>
    </mxGraphModel>
  </diagram>
</mxfile>
